<svg width="200" height="158" viewBox="0 0 200 158" fill="none" xmlns="http://www.w3.org/2000/svg">
<path fill-rule="evenodd" clip-rule="evenodd" d="M195.422 130C198.396 120.53 200 110.452 200 100C200 44.7715 155.228 0 100 0C44.7715 0 0 44.7715 0 100C0 110.452 1.60355 120.53 4.57803 130H12.4781C10.2559 123.865 9 116.893 9 109.5C9 84.9233 22.8792 65 40 65C57.1208 65 71 84.9233 71 109.5C71 116.893 69.7441 123.865 67.5219 130H132.478C130.256 123.865 129 116.893 129 109.5C129 84.9233 142.879 65 160 65C177.121 65 191 84.9233 191 109.5C191 116.893 189.744 123.865 187.522 130H195.422Z" fill="url(#paint0_linear_2_20)"/>
<path d="M104.63 153.243C101.023 156.042 95.9772 156.042 92.3696 153.243L67.4423 133.9C59.9153 128.06 64.0455 116 73.5727 116L123.427 116C132.955 116 137.085 128.06 129.558 133.9L104.63 153.243Z" fill="#FF0000"/>
<g filter="url(#filter0_d_2_20)">
<ellipse cx="160.5" cy="106.5" rx="16.5" ry="17.5" fill="url(#paint1_linear_2_20)"/>
</g>
<g filter="url(#filter1_d_2_20)">
<ellipse cx="36.5" cy="106.5" rx="16.5" ry="17.5" fill="url(#paint2_linear_2_20)"/>
</g>
<defs>
<filter id="filter0_d_2_20" x="144" y="85" width="42" height="43" filterUnits="userSpaceOnUse" color-interpolation-filters="sRGB">
<feFlood flood-opacity="0" result="BackgroundImageFix"/>
<feColorMatrix in="SourceAlpha" type="matrix" values="0 0 0 0 0 0 0 0 0 0 0 0 0 0 0 0 0 0 127 0" result="hardAlpha"/>
<feOffset dx="5"/>
<feGaussianBlur stdDeviation="2"/>
<feComposite in2="hardAlpha" operator="out"/>
<feColorMatrix type="matrix" values="0 0 0 0 0 0 0 0 0 0 0 0 0 0 0 0 0 0 0.25 0"/>
<feBlend mode="normal" in2="BackgroundImageFix" result="effect1_dropShadow_2_20"/>
<feBlend mode="normal" in="SourceGraphic" in2="effect1_dropShadow_2_20" result="shape"/>
</filter>
<filter id="filter1_d_2_20" x="20" y="85" width="42" height="43" filterUnits="userSpaceOnUse" color-interpolation-filters="sRGB">
<feFlood flood-opacity="0" result="BackgroundImageFix"/>
<feColorMatrix in="SourceAlpha" type="matrix" values="0 0 0 0 0 0 0 0 0 0 0 0 0 0 0 0 0 0 127 0" result="hardAlpha"/>
<feOffset dx="5"/>
<feGaussianBlur stdDeviation="2"/>
<feComposite in2="hardAlpha" operator="out"/>
<feColorMatrix type="matrix" values="0 0 0 0 0 0 0 0 0 0 0 0 0 0 0 0 0 0 0.25 0"/>
<feBlend mode="normal" in2="BackgroundImageFix" result="effect1_dropShadow_2_20"/>
<feBlend mode="normal" in="SourceGraphic" in2="effect1_dropShadow_2_20" result="shape"/>
</filter>
<linearGradient id="paint0_linear_2_20" x1="191" y1="65" x2="13.5" y2="65" gradientUnits="userSpaceOnUse">
<stop/>
<stop offset="1" stop-color="#4D4949"/>
</linearGradient>
<linearGradient id="paint1_linear_2_20" x1="160.5" y1="89" x2="160.5" y2="124" gradientUnits="userSpaceOnUse">
<stop stop-color="#4E4E4E"/>
<stop offset="1"/>
</linearGradient>
<linearGradient id="paint2_linear_2_20" x1="36.5" y1="89" x2="36.5" y2="124" gradientUnits="userSpaceOnUse">
<stop stop-color="#4E4E4E"/>
<stop offset="1"/>
</linearGradient>
</defs>
</svg>
